#!OML:ASF X:\für Bonn\!DataBase\2005_08_10_Bjorn_Final\c3d\bjorn.ASF
:FULLY-SPECIFIED
:DEGREES
32
root 5.22766 18.3096 -3.94482 14.1354 -7.80173 0.856977
lowerback 1.94107 0.583149 -1.21285
upperback 5.44381 0.803937 -0.718482
thorax 4.51776 0.362178 -0.0469127
lowerneck -11.6904 -1.03035 0.512643
upperneck -4.60784 -1.44611 1.33895
head 0.505174 -0.719361 0.273192
rclavicle -1.0635e-014 1.49089e-015
rhumerus -40.1735 -25.6174 -56.4533
rradius 127.063
rwrist -193.084
rhand -7.4584e-013 -8.6034e-013
rfingers 7.12502
rthumb 25.5904 -28.3008
lclavicle -1.0635e-014 1.49089e-015
lhumerus -54.1436 2.53523 66.2926
lradius 124.131
lwrist -17.6283
lhand -2.29e-013 -3.89618e-013
lfingers 7.12502
lthumb 25.5904 28.3008
rfemur -21.0441 -5.45409 9.94658
rtibia 55.9965
rfoot -13.8743 18.5284
rtoes -26.7097
lfemur -22.9332 6.39558 -18.8922
ltibia 57.7177
lfoot -15.5343 -2.8768
ltoes -38.4732
33
root 5.21201 18.5457 -3.62388 13.4528 -7.87155 0.74426
lowerback 0.684897 0.621911 -1.08277
upperback 5.19155 0.873227 -0.677685
thorax 4.96739 0.40012 -0.0628958
lowerneck -10.3397 -1.11822 0.387209
upperneck -3.51247 -1.54624 1.39415
head 0.630706 -0.762583 0.310827
rclavicle 8.54774e-015 -5.96354e-016
rhumerus -39.7301 -25.9724 -53.9462
rradius 129.623
rwrist -194.893
rhand 1.95127e-012 -2.19458e-013
rfingers 7.12502
rthumb 25.5904 -28.3008
lclavicle 8.54774e-015 -5.96354e-016
lhumerus -54.7994 1.48412 64.8354
lradius 126.656
lwrist -19.2621
lhand -9.43034e-013 2.52059e-013
lfingers 7.12502
lthumb 25.5904 28.3008
rfemur -18.1631 -5.7767 9.82426
rtibia 52.9723
rfoot -9.97927 17.7033
rtoes -28.0597
lfemur -19.7338 6.96755 -18.4422
ltibia 54.2549
lfoot -12.0855 -4.05871
ltoes -38.2236
34
root 5.19735 18.7862 -3.29797 12.8005 -7.94334 0.630134
lowerback -0.670203 0.683533 -0.895221
upperback 4.97766 0.970028 -0.659009
thorax 5.51838 0.45439 -0.128866
lowerneck -8.94046 -1.21012 0.303034
upperneck -2.52021 -1.65844 1.42135
head 0.711622 -0.814685 0.333938
rclavicle 8.49804e-015 8.94531e-016
rhumerus -38.9932 -26.3854 -51.6707
rradius 131.955
rwrist -196.418
rhand -1.00506e-012 -1.24042e-013
rfingers 7.12502
rthumb 25.5904 -28.3008
lclavicle 8.49804e-015 8.94531e-016
lhumerus -55.1531 0.258884 63.4934
lradius 128.832
lwrist -20.3771
lhand 5.39104e-013 -4.18839e-013
lfingers 7.12502
lthumb 25.5904 28.3008
rfemur -15.5126 -6.06923 9.6811
rtibia 50.258
rfoot -5.77339 16.5339
rtoes -29.0041
lfemur -16.6857 7.49172 -17.9606
ltibia 50.9837
lfoot -8.14851 -5.20359
ltoes -37.4384
35
root 5.18467 19.0188 -2.98812 12.313 -8.11385 0.507334
lowerback -2.00848 0.773898 -0.732481
upperback 4.65607 1.0985 -0.620312
thorax 5.94877 0.523505 -0.155542
lowerneck -7.44716 -1.30557 0.250167
upperneck -1.52929 -1.77923 1.32888
head 0.771961 -0.874168 0.316287
rclavicle -1.4064e-014 -2.5345e-015
rhumerus -37.9315 -26.4787 -49.5475
rradius 133.988
rwrist -198.001
rhand 6.20208e-013 1.87653e-013
rfingers 7.12502
rthumb 25.5904 -28.3008
lclavicle -1.4064e-014 -2.5345e-015
lhumerus -55.4052 -1.05203 62.3993
lradius 130.691
lwrist -21.0498
lhand 2.03555e-013 5.33936e-013
lfingers 7.12502
lthumb 25.5904 28.3008
rfemur -13.4011 -6.24354 9.54733
rtibia 47.9603
rfoot -1.1387 14.8464
rtoes -28.5726
lfemur -14.0772 8.01948 -17.4833
ltibia 48.0235
lfoot -3.71995 -6.04093
ltoes -35.9974
36
root 5.17354 19.2691 -2.69473 12.0498 -8.25223 0.404116
lowerback -3.34308 0.860287 -0.600992
upperback 4.35583 1.21895 -0.585373
thorax 6.40159 0.586972 -0.164996
lowerneck -6.41248 -1.39034 0.26136
upperneck -0.387166 -1.89503 1.15456
head 0.954333 -0.93058 0.260589
rclavicle 7.97623e-015 -6.60959e-015
rhumerus -36.3454 -26.4071 -47.8012
rradius 135.591
rwrist -199.869
rhand 2.79889e-013 -1.28812e-012
rfingers 7.12502
rthumb 25.5904 -28.3008
lclavicle 7.97623e-015 -6.60959e-015
lhumerus -55.2381 -2.35331 61.4011
lradius 132.304
lwrist -21.5785
lhand -2.21844e-013 -4.78922e-013
lfingers 7.12502
lthumb 25.5904 28.3008
rfemur -11.8232 -6.35929 9.457
rtibia 46.0498
rfoot 3.33121 12.8161
rtoes -27.4693
lfemur -12.002 8.44491 -17.0454
ltibia 45.364
lfoot 1.0159 -6.41565
ltoes -34.4912
37
root 5.16179 19.5382 -2.39569 11.9296 -8.37931 0.342177
lowerback -4.74129 0.930249 -0.512175
upperback 4.03824 1.31835 -0.572055
thorax 6.87416 0.63824 -0.170349
lowerneck -5.56077 -1.4627 0.367797
upperneck 0.860304 -1.99842 0.877234
head 1.19862 -0.981698 0.156071
rclavicle 1.22998e-014 8.94531e-016
rhumerus -34.5496 -26.0533 -46.5785
rradius 136.754
rwrist -201.682
rhand -3.62583e-013 -1.20861e-013
rfingers 7.12502
rthumb 25.5904 -28.3008
lclavicle 1.22998e-014 8.94531e-016
lhumerus -54.8458 -3.65176 60.465
lradius 133.715
lwrist -22.0933
lhand 1.72098e-013 -2.7464e-013
lfingers 7.12502
lthumb 25.5904 28.3008
rfemur -10.6118 -6.31709 9.38694
rtibia 44.5449
rfoot 7.32771 10.5414
rtoes -25.7153
lfemur -10.2995 8.71383 -16.6824
ltibia 43.0427
lfoot 5.75469 -6.24946
ltoes -32.4599
38
root 5.15055 19.8125 -2.09686 11.7457 -8.56848 0.280784
lowerback -5.96852 1.03564 -0.438364
upperback 3.73871 1.46143 -0.550056
thorax 7.2674 0.709925 -0.152596
lowerneck -4.71819 -1.56833 0.476312
upperneck 2.10273 -2.1393 0.537284
head 1.44265 -1.05317 0.0302368
rclavicle -2.4376e-014 -4.72114e-015
rhumerus -32.6897 -25.337 -45.6919
rradius 137.571
rwrist -203.09
rhand 1.43125e-013 -1.84472e-013
rfingers 7.12502
rthumb 25.5904 -28.3008
lclavicle -2.4376e-014 -4.72114e-015
lhumerus -54.2359 -4.93467 59.6311
lradius 134.878
lwrist -22.9471
lhand -2.48083e-013 3.52445e-013
lfingers 7.12502
lthumb 25.5904 28.3008
rfemur -9.53196 -6.07699 9.34149
rtibia 43.3984
rfoot 10.7844 8.04032
rtoes -23.1485
lfemur -8.75414 8.83598 -16.3727
ltibia 41.0664
lfoot 10.1961 -5.58539
ltoes -30.3295
